<svg xmlns="http://www.w3.org/2000/svg" width="1160" height="690" viewBox="0 0 1160 690">
<rect width="100%" height="100%" fill="#ffffff"/>
<text x="95.0" y="34.0" font-family="Arial,sans-serif" font-size="22" text-anchor="start" font-weight="bold" fill="#222">Irregular N scaling: B=64, K=32</text>
<line x1="95" y1="538.0" x2="900" y2="538.0" stroke="#dedede" stroke-width="1"/>
<text x="85.0" y="542.0" font-family="Arial,sans-serif" font-size="12" text-anchor="end" font-weight="normal" fill="#222">0.05</text>
<line x1="95" y1="472.5" x2="900" y2="472.5" stroke="#dedede" stroke-width="1"/>
<text x="85.0" y="476.5" font-family="Arial,sans-serif" font-size="12" text-anchor="end" font-weight="normal" fill="#222">0.1</text>
<line x1="95" y1="407.0" x2="900" y2="407.0" stroke="#dedede" stroke-width="1"/>
<text x="85.0" y="411.0" font-family="Arial,sans-serif" font-size="12" text-anchor="end" font-weight="normal" fill="#222">0.2</text>
<line x1="95" y1="320.5" x2="900" y2="320.5" stroke="#dedede" stroke-width="1"/>
<text x="85.0" y="324.5" font-family="Arial,sans-serif" font-size="12" text-anchor="end" font-weight="normal" fill="#222">0.5</text>
<line x1="95" y1="255.0" x2="900" y2="255.0" stroke="#dedede" stroke-width="1"/>
<text x="85.0" y="259.0" font-family="Arial,sans-serif" font-size="12" text-anchor="end" font-weight="normal" fill="#222">1</text>
<line x1="95" y1="189.5" x2="900" y2="189.5" stroke="#dedede" stroke-width="1"/>
<text x="85.0" y="193.5" font-family="Arial,sans-serif" font-size="12" text-anchor="end" font-weight="normal" fill="#222">2</text>
<line x1="95" y1="102.9" x2="900" y2="102.9" stroke="#dedede" stroke-width="1"/>
<text x="85.0" y="106.9" font-family="Arial,sans-serif" font-size="12" text-anchor="end" font-weight="normal" fill="#222">5</text>
<line x1="95.0" y1="70" x2="95.0" y2="605" stroke="#f0f0f0" stroke-width="1"/>
<text x="95.0" y="629.0" font-family="Arial,sans-serif" font-size="11" text-anchor="middle" font-weight="normal" fill="#222">4093</text>
<line x1="229.7" y1="70" x2="229.7" y2="605" stroke="#f0f0f0" stroke-width="1"/>
<text x="229.7" y="629.0" font-family="Arial,sans-serif" font-size="11" text-anchor="middle" font-weight="normal" fill="#222">8209</text>
<line x1="497.6" y1="70" x2="497.6" y2="605" stroke="#f0f0f0" stroke-width="1"/>
<text x="497.6" y="629.0" font-family="Arial,sans-serif" font-size="11" text-anchor="middle" font-weight="normal" fill="#222">32771</text>
<line x1="631.7" y1="70" x2="631.7" y2="605" stroke="#f0f0f0" stroke-width="1"/>
<text x="631.7" y="629.0" font-family="Arial,sans-serif" font-size="11" text-anchor="middle" font-weight="normal" fill="#222">65521</text>
<line x1="713.5" y1="70" x2="713.5" y2="605" stroke="#f0f0f0" stroke-width="1"/>
<text x="713.5" y="629.0" font-family="Arial,sans-serif" font-size="11" text-anchor="middle" font-weight="normal" fill="#222">100003</text>
<line x1="900.0" y1="70" x2="900.0" y2="605" stroke="#f0f0f0" stroke-width="1"/>
<text x="900.0" y="629.0" font-family="Arial,sans-serif" font-size="11" text-anchor="middle" font-weight="normal" fill="#222">262139</text>
<line x1="95" y1="70" x2="95" y2="605" stroke="#333"/>
<line x1="95" y1="605" x2="900" y2="605" stroke="#333"/>
<text x="497.5" y="665.0" font-family="Arial,sans-serif" font-size="14" text-anchor="middle" font-weight="normal" fill="#222">N</text>
<text x="24" y="337.5" font-family="Arial,sans-serif" font-size="14" text-anchor="middle" transform="rotate(-90 24 337.5)">Median latency (ms, log scale)</text>
<polyline points="95.0,456.3 229.7,403.8 497.6,288.2 631.7,228.6 713.5,189.1 900.0,98.4" fill="none" stroke="#8c564b" stroke-width="2.4" stroke-linejoin="round"/>
<circle cx="95.0" cy="456.3" r="3.3" fill="#8c564b"/>
<circle cx="229.7" cy="403.8" r="3.3" fill="#8c564b"/>
<circle cx="497.6" cy="288.2" r="3.3" fill="#8c564b"/>
<circle cx="631.7" cy="228.6" r="3.3" fill="#8c564b"/>
<circle cx="713.5" cy="189.1" r="3.3" fill="#8c564b"/>
<circle cx="900.0" cy="98.4" r="3.3" fill="#8c564b"/>
<line x1="924" y1="92" x2="954" y2="92" stroke="#8c564b" stroke-width="3"/>
<text x="964.0" y="97.0" font-family="Arial,sans-serif" font-size="13" text-anchor="start" font-weight="normal" fill="#222">V1</text>
<polyline points="95.0,488.9 229.7,434.0 497.6,318.8 631.7,259.4 713.5,220.4 900.0,130.3" fill="none" stroke="#0072b2" stroke-width="2.4" stroke-linejoin="round"/>
<circle cx="95.0" cy="488.9" r="3.3" fill="#0072b2"/>
<circle cx="229.7" cy="434.0" r="3.3" fill="#0072b2"/>
<circle cx="497.6" cy="318.8" r="3.3" fill="#0072b2"/>
<circle cx="631.7" cy="259.4" r="3.3" fill="#0072b2"/>
<circle cx="713.5" cy="220.4" r="3.3" fill="#0072b2"/>
<circle cx="900.0" cy="130.3" r="3.3" fill="#0072b2"/>
<line x1="924" y1="122" x2="954" y2="122" stroke="#0072b2" stroke-width="3"/>
<text x="964.0" y="127.0" font-family="Arial,sans-serif" font-size="13" text-anchor="start" font-weight="normal" fill="#222">V2</text>
<polyline points="95.0,482.3 229.7,428.1 497.6,312.1 631.7,252.3 713.5,213.3 900.0,123.8" fill="none" stroke="#009e73" stroke-width="2.4" stroke-linejoin="round"/>
<circle cx="95.0" cy="482.3" r="3.3" fill="#009e73"/>
<circle cx="229.7" cy="428.1" r="3.3" fill="#009e73"/>
<circle cx="497.6" cy="312.1" r="3.3" fill="#009e73"/>
<circle cx="631.7" cy="252.3" r="3.3" fill="#009e73"/>
<circle cx="713.5" cy="213.3" r="3.3" fill="#009e73"/>
<circle cx="900.0" cy="123.8" r="3.3" fill="#009e73"/>
<line x1="924" y1="152" x2="954" y2="152" stroke="#009e73" stroke-width="3"/>
<text x="964.0" y="157.0" font-family="Arial,sans-serif" font-size="13" text-anchor="start" font-weight="normal" fill="#222">V3</text>
<polyline points="95.0,556.7 229.7,520.6 497.6,416.9 631.7,348.1 713.5,314.4 900.0,222.7" fill="none" stroke="#d55e00" stroke-width="2.4" stroke-linejoin="round"/>
<circle cx="95.0" cy="556.7" r="3.3" fill="#d55e00"/>
<circle cx="229.7" cy="520.6" r="3.3" fill="#d55e00"/>
<circle cx="497.6" cy="416.9" r="3.3" fill="#d55e00"/>
<circle cx="631.7" cy="348.1" r="3.3" fill="#d55e00"/>
<circle cx="713.5" cy="314.4" r="3.3" fill="#d55e00"/>
<circle cx="900.0" cy="222.7" r="3.3" fill="#d55e00"/>
<line x1="924" y1="182" x2="954" y2="182" stroke="#d55e00" stroke-width="3"/>
<text x="964.0" y="187.0" font-family="Arial,sans-serif" font-size="13" text-anchor="start" font-weight="normal" fill="#222">TensorRT TopK</text>
<polyline points="95.0,577.8 229.7,442.1 497.6,338.7 631.7,270.0 713.5,221.9 900.0,117.5" fill="none" stroke="#cc79a7" stroke-width="2.4" stroke-linejoin="round"/>
<circle cx="95.0" cy="577.8" r="3.3" fill="#cc79a7"/>
<circle cx="229.7" cy="442.1" r="3.3" fill="#cc79a7"/>
<circle cx="497.6" cy="338.7" r="3.3" fill="#cc79a7"/>
<circle cx="631.7" cy="270.0" r="3.3" fill="#cc79a7"/>
<circle cx="713.5" cy="221.9" r="3.3" fill="#cc79a7"/>
<circle cx="900.0" cy="117.5" r="3.3" fill="#cc79a7"/>
<line x1="924" y1="212" x2="954" y2="212" stroke="#cc79a7" stroke-width="3"/>
<text x="964.0" y="217.0" font-family="Arial,sans-serif" font-size="13" text-anchor="start" font-weight="normal" fill="#222">CUB stable full sort</text>
<polyline points="95.0,496.0 229.7,445.6 497.6,343.5 631.7,270.3 713.5,220.6 900.0,122.9" fill="none" stroke="#7f7f7f" stroke-width="2.4" stroke-linejoin="round"/>
<circle cx="95.0" cy="496.0" r="3.3" fill="#7f7f7f"/>
<circle cx="229.7" cy="445.6" r="3.3" fill="#7f7f7f"/>
<circle cx="497.6" cy="343.5" r="3.3" fill="#7f7f7f"/>
<circle cx="631.7" cy="270.3" r="3.3" fill="#7f7f7f"/>
<circle cx="713.5" cy="220.6" r="3.3" fill="#7f7f7f"/>
<circle cx="900.0" cy="122.9" r="3.3" fill="#7f7f7f"/>
<line x1="924" y1="242" x2="954" y2="242" stroke="#7f7f7f" stroke-width="3"/>
<text x="964.0" y="247.0" font-family="Arial,sans-serif" font-size="13" text-anchor="start" font-weight="normal" fill="#222">CUB fixed radix</text>
<text x="95.0" y="686.0" font-family="Arial,sans-serif" font-size="11" text-anchor="start" font-weight="normal" fill="#555">Same-session benchmark: 5 warmups, 20 timed iterations, 3-5 independent trials; point = median.</text>
</svg>
