<svg xmlns="http://www.w3.org/2000/svg" width="1280" height="895" viewBox="0 0 1280 895">
<rect width="100%" height="100%" fill="white"/>
<text x="24" y="34" font-family="sans-serif" font-size="22" font-weight="700" fill="#17212b">Combined NCU metrics grouped by algorithm</text>
<text x="24" y="58" font-family="sans-serif" font-size="13" fill="#64707d">Bar length is normalized per metric across algorithms; raw values are shown on the right.</text>
<text x="24" y="84" font-family="sans-serif" font-size="12" fill="#64707d">1. Duration us</text>
<text x="259" y="84" font-family="sans-serif" font-size="12" fill="#64707d">2. SM throughput %</text>
<text x="494" y="84" font-family="sans-serif" font-size="12" fill="#64707d">3. Memory throughput %</text>
<text x="729" y="84" font-family="sans-serif" font-size="12" fill="#64707d">4. DRAM throughput %</text>
<text x="964" y="84" font-family="sans-serif" font-size="12" fill="#64707d">5. L1/TEX throughput %</text>
<text x="24" y="102" font-family="sans-serif" font-size="12" fill="#64707d">6. Eligible warps/sched</text>
<text x="259" y="102" font-family="sans-serif" font-size="12" fill="#64707d">7. Warp cycles/issued</text>
<text x="494" y="102" font-family="sans-serif" font-size="12" fill="#64707d">8. Executed inst</text>
<text x="729" y="102" font-family="sans-serif" font-size="12" fill="#64707d">9. Registers/thread</text>
<text x="964" y="102" font-family="sans-serif" font-size="12" fill="#64707d">10. Achieved occupancy %</text>
<text x="24" y="128" font-family="sans-serif" font-size="17" font-weight="700" fill="#2267b0">seme</text>
<text x="24" y="146" font-family="sans-serif" font-size="12" fill="#64707d">shared-memory bitonic per block</text>
<text x="196" y="147" text-anchor="end" font-family="sans-serif" font-size="12" fill="#64707d">1</text>
<rect x="250" y="134" width="560.0" height="14" rx="2" fill="#2267b0" opacity="0.78"/>
<text x="848" y="146" font-family="monospace" font-size="12" fill="#17212b">1110</text>
<text x="958" y="146" font-family="sans-serif" font-size="12" fill="#64707d">Duration us</text>
<text x="196" y="169" text-anchor="end" font-family="sans-serif" font-size="12" fill="#64707d">2</text>
<rect x="250" y="156" width="560.0" height="14" rx="2" fill="#2267b0" opacity="0.78"/>
<text x="848" y="168" font-family="monospace" font-size="12" fill="#17212b">80.64</text>
<text x="958" y="168" font-family="sans-serif" font-size="12" fill="#64707d">SM throughput %</text>
<text x="196" y="191" text-anchor="end" font-family="sans-serif" font-size="12" fill="#64707d">3</text>
<rect x="250" y="178" width="380.4" height="14" rx="2" fill="#2267b0" opacity="0.78"/>
<text x="848" y="190" font-family="monospace" font-size="12" fill="#17212b">52.22</text>
<text x="958" y="190" font-family="sans-serif" font-size="12" fill="#64707d">Memory throughput %</text>
<text x="196" y="213" text-anchor="end" font-family="sans-serif" font-size="12" fill="#64707d">4</text>
<rect x="250" y="200" width="500.3" height="14" rx="2" fill="#2267b0" opacity="0.78"/>
<text x="848" y="212" font-family="monospace" font-size="12" fill="#17212b">3.35</text>
<text x="958" y="212" font-family="sans-serif" font-size="12" fill="#64707d">DRAM throughput %</text>
<text x="196" y="235" text-anchor="end" font-family="sans-serif" font-size="12" fill="#64707d">5</text>
<rect x="250" y="222" width="380.2" height="14" rx="2" fill="#2267b0" opacity="0.78"/>
<text x="848" y="234" font-family="monospace" font-size="12" fill="#17212b">52.37</text>
<text x="958" y="234" font-family="sans-serif" font-size="12" fill="#64707d">L1/TEX throughput %</text>
<text x="196" y="257" text-anchor="end" font-family="sans-serif" font-size="12" fill="#64707d">6</text>
<rect x="250" y="244" width="560.0" height="14" rx="2" fill="#2267b0" opacity="0.78"/>
<text x="848" y="256" font-family="monospace" font-size="12" fill="#17212b">2.37</text>
<text x="958" y="256" font-family="sans-serif" font-size="12" fill="#64707d">Eligible warps/sched</text>
<text x="196" y="279" text-anchor="end" font-family="sans-serif" font-size="12" fill="#64707d">7</text>
<rect x="250" y="266" width="516.4" height="14" rx="2" fill="#2267b0" opacity="0.78"/>
<text x="848" y="278" font-family="monospace" font-size="12" fill="#17212b">14.58</text>
<text x="958" y="278" font-family="sans-serif" font-size="12" fill="#64707d">Warp cycles/issued</text>
<text x="196" y="301" text-anchor="end" font-family="sans-serif" font-size="12" fill="#64707d">8</text>
<rect x="250" y="288" width="560.0" height="14" rx="2" fill="#2267b0" opacity="0.78"/>
<text x="848" y="300" font-family="monospace" font-size="12" fill="#17212b">2.03e+06</text>
<text x="958" y="300" font-family="sans-serif" font-size="12" fill="#64707d">Executed inst</text>
<text x="196" y="323" text-anchor="end" font-family="sans-serif" font-size="12" fill="#64707d">9</text>
<rect x="250" y="310" width="560.0" height="14" rx="2" fill="#2267b0" opacity="0.78"/>
<text x="848" y="322" font-family="monospace" font-size="12" fill="#17212b">38</text>
<text x="958" y="322" font-family="sans-serif" font-size="12" fill="#64707d">Registers/thread</text>
<text x="196" y="345" text-anchor="end" font-family="sans-serif" font-size="12" fill="#64707d">10</text>
<rect x="250" y="332" width="559.5" height="14" rx="2" fill="#2267b0" opacity="0.78"/>
<text x="848" y="344" font-family="monospace" font-size="12" fill="#17212b">98.29</text>
<text x="958" y="344" font-family="sans-serif" font-size="12" fill="#64707d">Achieved occupancy %</text>
<text x="24" y="374" font-family="sans-serif" font-size="17" font-weight="700" fill="#15946b">warp</text>
<text x="24" y="392" font-family="sans-serif" font-size="12" fill="#64707d">warp-local topK plus block merge</text>
<text x="196" y="393" text-anchor="end" font-family="sans-serif" font-size="12" fill="#64707d">1</text>
<rect x="250" y="380" width="426.7" height="14" rx="2" fill="#15946b" opacity="0.78"/>
<text x="848" y="392" font-family="monospace" font-size="12" fill="#17212b">845.7</text>
<text x="958" y="392" font-family="sans-serif" font-size="12" fill="#64707d">Duration us</text>
<text x="196" y="415" text-anchor="end" font-family="sans-serif" font-size="12" fill="#64707d">2</text>
<rect x="250" y="402" width="515.9" height="14" rx="2" fill="#15946b" opacity="0.78"/>
<text x="848" y="414" font-family="monospace" font-size="12" fill="#17212b">74.29</text>
<text x="958" y="414" font-family="sans-serif" font-size="12" fill="#64707d">SM throughput %</text>
<text x="196" y="437" text-anchor="end" font-family="sans-serif" font-size="12" fill="#64707d">3</text>
<rect x="250" y="424" width="398.9" height="14" rx="2" fill="#15946b" opacity="0.78"/>
<text x="848" y="436" font-family="monospace" font-size="12" fill="#17212b">54.75</text>
<text x="958" y="436" font-family="sans-serif" font-size="12" fill="#64707d">Memory throughput %</text>
<text x="196" y="459" text-anchor="end" font-family="sans-serif" font-size="12" fill="#64707d">4</text>
<rect x="250" y="446" width="560.0" height="14" rx="2" fill="#15946b" opacity="0.78"/>
<text x="848" y="458" font-family="monospace" font-size="12" fill="#17212b">3.75</text>
<text x="958" y="458" font-family="sans-serif" font-size="12" fill="#64707d">DRAM throughput %</text>
<text x="196" y="481" text-anchor="end" font-family="sans-serif" font-size="12" fill="#64707d">5</text>
<rect x="250" y="468" width="398.7" height="14" rx="2" fill="#15946b" opacity="0.78"/>
<text x="848" y="480" font-family="monospace" font-size="12" fill="#17212b">54.91</text>
<text x="958" y="480" font-family="sans-serif" font-size="12" fill="#64707d">L1/TEX throughput %</text>
<text x="196" y="503" text-anchor="end" font-family="sans-serif" font-size="12" fill="#64707d">6</text>
<rect x="250" y="490" width="496.2" height="14" rx="2" fill="#15946b" opacity="0.78"/>
<text x="848" y="502" font-family="monospace" font-size="12" fill="#17212b">2.1</text>
<text x="958" y="502" font-family="sans-serif" font-size="12" fill="#64707d">Eligible warps/sched</text>
<text x="196" y="525" text-anchor="end" font-family="sans-serif" font-size="12" fill="#64707d">7</text>
<rect x="250" y="512" width="560.0" height="14" rx="2" fill="#15946b" opacity="0.78"/>
<text x="848" y="524" font-family="monospace" font-size="12" fill="#17212b">15.81</text>
<text x="958" y="524" font-family="sans-serif" font-size="12" fill="#64707d">Warp cycles/issued</text>
<text x="196" y="547" text-anchor="end" font-family="sans-serif" font-size="12" fill="#64707d">8</text>
<rect x="250" y="534" width="387.0" height="14" rx="2" fill="#15946b" opacity="0.78"/>
<text x="848" y="546" font-family="monospace" font-size="12" fill="#17212b">1.4e+06</text>
<text x="958" y="546" font-family="sans-serif" font-size="12" fill="#64707d">Executed inst</text>
<text x="196" y="569" text-anchor="end" font-family="sans-serif" font-size="12" fill="#64707d">9</text>
<rect x="250" y="556" width="250.5" height="14" rx="2" fill="#15946b" opacity="0.78"/>
<text x="848" y="568" font-family="monospace" font-size="12" fill="#17212b">17</text>
<text x="958" y="568" font-family="sans-serif" font-size="12" fill="#64707d">Registers/thread</text>
<text x="196" y="591" text-anchor="end" font-family="sans-serif" font-size="12" fill="#64707d">10</text>
<rect x="250" y="578" width="559.1" height="14" rx="2" fill="#15946b" opacity="0.78"/>
<text x="848" y="590" font-family="monospace" font-size="12" fill="#17212b">98.22</text>
<text x="958" y="590" font-family="sans-serif" font-size="12" fill="#64707d">Achieved occupancy %</text>
<text x="24" y="620" font-family="sans-serif" font-size="17" font-weight="700" fill="#b96b1e">soa_warp</text>
<text x="24" y="638" font-family="sans-serif" font-size="12" fill="#64707d">SoA shared layout experiment</text>
<text x="196" y="639" text-anchor="end" font-family="sans-serif" font-size="12" fill="#64707d">1</text>
<rect x="250" y="626" width="455.1" height="14" rx="2" fill="#b96b1e" opacity="0.78"/>
<text x="848" y="638" font-family="monospace" font-size="12" fill="#17212b">902.1</text>
<text x="958" y="638" font-family="sans-serif" font-size="12" fill="#64707d">Duration us</text>
<text x="196" y="661" text-anchor="end" font-family="sans-serif" font-size="12" fill="#64707d">2</text>
<rect x="250" y="648" width="533.8" height="14" rx="2" fill="#b96b1e" opacity="0.78"/>
<text x="848" y="660" font-family="monospace" font-size="12" fill="#17212b">76.87</text>
<text x="958" y="660" font-family="sans-serif" font-size="12" fill="#64707d">SM throughput %</text>
<text x="196" y="683" text-anchor="end" font-family="sans-serif" font-size="12" fill="#64707d">3</text>
<rect x="250" y="670" width="560.0" height="14" rx="2" fill="#b96b1e" opacity="0.78"/>
<text x="848" y="682" font-family="monospace" font-size="12" fill="#17212b">76.87</text>
<text x="958" y="682" font-family="sans-serif" font-size="12" fill="#64707d">Memory throughput %</text>
<text x="196" y="705" text-anchor="end" font-family="sans-serif" font-size="12" fill="#64707d">4</text>
<rect x="250" y="692" width="419.6" height="14" rx="2" fill="#b96b1e" opacity="0.78"/>
<text x="848" y="704" font-family="monospace" font-size="12" fill="#17212b">2.81</text>
<text x="958" y="704" font-family="sans-serif" font-size="12" fill="#64707d">DRAM throughput %</text>
<text x="196" y="727" text-anchor="end" font-family="sans-serif" font-size="12" fill="#64707d">5</text>
<rect x="250" y="714" width="560.0" height="14" rx="2" fill="#b96b1e" opacity="0.78"/>
<text x="848" y="726" font-family="monospace" font-size="12" fill="#17212b">77.13</text>
<text x="958" y="726" font-family="sans-serif" font-size="12" fill="#64707d">L1/TEX throughput %</text>
<text x="196" y="749" text-anchor="end" font-family="sans-serif" font-size="12" fill="#64707d">6</text>
<rect x="250" y="736" width="529.3" height="14" rx="2" fill="#b96b1e" opacity="0.78"/>
<text x="848" y="748" font-family="monospace" font-size="12" fill="#17212b">2.24</text>
<text x="958" y="748" font-family="sans-serif" font-size="12" fill="#64707d">Eligible warps/sched</text>
<text x="196" y="771" text-anchor="end" font-family="sans-serif" font-size="12" fill="#64707d">7</text>
<rect x="250" y="758" width="548.0" height="14" rx="2" fill="#b96b1e" opacity="0.78"/>
<text x="848" y="770" font-family="monospace" font-size="12" fill="#17212b">15.47</text>
<text x="958" y="770" font-family="sans-serif" font-size="12" fill="#64707d">Warp cycles/issued</text>
<text x="196" y="793" text-anchor="end" font-family="sans-serif" font-size="12" fill="#64707d">8</text>
<rect x="250" y="780" width="424.3" height="14" rx="2" fill="#b96b1e" opacity="0.78"/>
<text x="848" y="792" font-family="monospace" font-size="12" fill="#17212b">1.53e+06</text>
<text x="958" y="792" font-family="sans-serif" font-size="12" fill="#64707d">Executed inst</text>
<text x="196" y="815" text-anchor="end" font-family="sans-serif" font-size="12" fill="#64707d">9</text>
<rect x="250" y="802" width="280.0" height="14" rx="2" fill="#b96b1e" opacity="0.78"/>
<text x="848" y="814" font-family="monospace" font-size="12" fill="#17212b">19</text>
<text x="958" y="814" font-family="sans-serif" font-size="12" fill="#64707d">Registers/thread</text>
<text x="196" y="837" text-anchor="end" font-family="sans-serif" font-size="12" fill="#64707d">10</text>
<rect x="250" y="824" width="560.0" height="14" rx="2" fill="#b96b1e" opacity="0.78"/>
<text x="848" y="836" font-family="monospace" font-size="12" fill="#17212b">98.37</text>
<text x="958" y="836" font-family="sans-serif" font-size="12" fill="#64707d">Achieved occupancy %</text>
</svg>